# xmcd CD database file
#
# Track frame offsets:
#	150
#	7169
#	17435
#	38516
#	74426
#	80938
#	104123
#	123083
#	132010
#	156842
#	164978
#	170104
#	182691
#	194230
#	207724
#	232254
#	257211
#	269741
#	291687
#	304257
#	313800
#	330048
#
# Disc length: 4530 seconds
#
# Revision: 3
# Processed by: cddbd v1.5.2PL0 Copyright (c) Steve Scherf et al.
# Submitted via: CDex 1.51
#
DISCID=6411b016
DTITLE=Michael Mantler - Review
DYEAR=2006
DGENRE=Jazz
TTITLE0=Unsaid
TTITLE1=I'm Gad You're Glad
TTITLE2=One Sinphony - Part 3
TTITLE3=Introduction
TTITLE4=Love Ends
TTITLE5=Understanding
TTITLE6=Solitudine - Lontano - L'Illuminata Rugiada - Proverbi
TTITLE7=Speechless
TTITLE8=Folly Seeing All This
TTITLE9=PSS
TTITLE10=Comrade
TTITLE11=A L'Abbattoir
TTITLE12=When I Run
TTITLE13=Alien - Part 1
TTITLE14=Twenty
TTITLE15=Movie Two
TTITLE16=Sometimes I See People
TTITLE17=The Sinking Spell
TTITLE18=13
TTITLE19=Number Six - Part Four
TTITLE20=Preview
TTITLE21=It Makes no Difference To Me
EXTD=YEAR: 2006
EXTT0=
EXTT1=
EXTT2=
EXTT3=
EXTT4=
EXTT5=
EXTT6=
EXTT7=
EXTT8=
EXTT9=
EXTT10=
EXTT11=
EXTT12=
EXTT13=
EXTT14=
EXTT15=
EXTT16=
EXTT17=
EXTT18=
EXTT19=
EXTT20=
EXTT21=
PLAYORDER=
